<?xml version="1.0" encoding="UTF-8"?>
<!-- Created with Inkscape (http://www.inkscape.org/) -->
<svg width="754.87" height="282.94" version="1.1" viewBox="0 0 199.73 74.86" xmlns="http://www.w3.org/2000/svg" xmlns:xlink="http://www.w3.org/1999/xlink">
 <defs>
  <linearGradient id="linearGradient3" x1="18.159" x2="180.46" y1="55.792" y2="93.224" gradientTransform="translate(197.38 76.994)" gradientUnits="userSpaceOnUse">
   <stop style="stop-color:#aa5cc3" offset="0"/>
   <stop style="stop-color:#00a4dc" offset="1"/>
  </linearGradient>
 </defs>
 <g transform="translate(-196.82 -114.17)">
  <rect x="196.82" y="114.17" width="199.73" height="74.86" style="fill:none"/>
  <path d="m215.54 169.74v-36.959h3.7703l16.966 25.4q0.64493 0.94258 1.4387 2.2076 0.81855 1.265 1.7115 2.6789 0.89297 1.4139 1.7115 2.8029l-0.42168 0.59532q-0.0248-1.3146-0.0744-2.9022-0.0496-1.6123-0.0744-3.1006t-0.0248-2.4309v-25.251h3.3734v36.959h-3.8199l-15.825-23.589q-0.66973-1.017-1.6123-2.4557-0.91777-1.4387-2.0588-3.2246-1.1162-1.8107-2.406-3.8695l0.47129-0.79375q0.0992 2.3316 0.12402 4.2912 0.0496 1.9348 0.0744 3.4479 0.0248 1.5131 0.0248 2.5797v23.614zm41.548 0.39688q-2.4805 0-4.5392-0.84336-2.0588-0.86816-3.2742-2.5797-1.2154-1.7363-1.2154-4.2912 0-2.0588 0.76894-3.3982 0.79375-1.3394 2.2076-2.158 1.4139-0.84336 3.3486-1.3146 1.9348-0.47129 4.2416-0.76894 2.4557-0.34727 3.9936-0.57051 1.5379-0.24805 2.2572-0.71934 0.74414-0.49609 0.74414-1.5131v-0.39688q0-1.6371-0.81856-2.9021-0.81855-1.265-2.3316-1.9844-1.4883-0.74414-3.4975-0.74414t-3.5967 0.71934q-1.5627 0.69453-2.5053 1.9348-0.91778 1.2402-0.99219 2.7781h-3.2246q0.0744-2.3812 1.4139-4.2416 1.3394-1.8852 3.6215-2.9766 2.3068-1.0914 5.2834-1.0914 2.1828 0 3.9936 0.62011 1.8107 0.62012 3.1006 1.7611 1.3146 1.141 2.0092 2.7037 0.71934 1.5379 0.71934 3.423v18.157h-3.175v-4.2912h-0.0744q-0.57051 1.2154-1.6619 2.3068-1.0666 1.0666-2.7533 1.7363-1.6867 0.64492-4.0432 0.64492zm0.39688-2.9022q2.6293 0 4.44-0.99219 1.8107-0.99218 2.7533-2.7285 0.94258-1.7611 0.94258-4.0184v-3.6711q-0.34727 0.32246-1.017 0.5705-0.66972 0.22325-1.6123 0.44649-0.94258 0.19844-2.0836 0.37207-1.141 0.17363-2.4309 0.34726-2.1828 0.29766-3.7951 0.89297-1.6123 0.57051-2.5053 1.5627-0.86817 0.96738-0.86817 2.5549 0 1.4883 0.79375 2.5301t2.1828 1.5875q1.3891 0.5457 3.1998 0.5457zm19.273-34.454v36.959h-3.175v-36.959zm12.551 37.356q-2.4805 0-4.5393-0.84336-2.0588-0.86816-3.2742-2.5797-1.2154-1.7363-1.2154-4.2912 0-2.0588 0.76894-3.3982 0.79375-1.3394 2.2076-2.158 1.4139-0.84336 3.3486-1.3146t4.2416-0.76894q2.4557-0.34727 3.9936-0.57051 1.5379-0.24805 2.2572-0.71934 0.74415-0.49609 0.74415-1.5131v-0.39688q0-1.6371-0.81856-2.9021-0.81856-1.265-2.3316-1.9844-1.4883-0.74414-3.4975-0.74414-2.0092 0-3.5967 0.71934-1.5627 0.69453-2.5053 1.9348-0.91777 1.2402-0.99218 2.7781h-3.2246q0.0744-2.3812 1.4139-4.2416 1.3395-1.8852 3.6215-2.9766 2.3068-1.0914 5.2834-1.0914 2.1828 0 3.9936 0.62011 1.8107 0.62012 3.1006 1.7611 1.3146 1.141 2.0092 2.7037 0.71934 1.5379 0.71934 3.423v18.157h-3.175v-4.2912h-0.0744q-0.57051 1.2154-1.6619 2.3068-1.0666 1.0666-2.7533 1.7363-1.6868 0.64492-4.0432 0.64492zm0.39688-2.9022q2.6293 0 4.44-0.99219 1.8107-0.99218 2.7533-2.7285 0.94258-1.7611 0.94258-4.0184v-3.6711q-0.34727 0.32246-1.017 0.5705-0.66973 0.22325-1.6123 0.44649-0.94258 0.19844-2.0836 0.37207-1.141 0.17363-2.4309 0.34726-2.1828 0.29766-3.7951 0.89297-1.6123 0.57051-2.5053 1.5627-0.86816 0.96738-0.86816 2.5549 0 1.4883 0.79375 2.5301t2.1828 1.5875 3.1998 0.5457zm19.273-13.395v15.9h-3.175v-26.194h3.1254v6.226h-0.89297q1.141-3.423 3.5471-5.0602 2.4309-1.6371 5.5314-1.6371 2.7285 0 4.9113 1.1906 2.1828 1.1658 3.4478 3.423 1.2898 2.2324 1.2898 5.5066v16.545h-3.1998v-16.346q0-3.5223-1.8852-5.4322-1.8604-1.91-5.085-1.91-2.1332 0-3.8695 0.86816-1.7115 0.86817-2.7285 2.6045-1.017 1.7363-1.017 4.316zm32.544 16.371q-3.3486 0-5.9283-1.7115t-4.0432-4.7625q-1.4387-3.051-1.4387-7.0941t1.4387-7.0941q1.4635-3.0758 4.0432-4.7625 2.5797-1.7115 5.9283-1.7115 1.9844 0 3.7207 0.66972 1.7363 0.64492 3.051 1.8604 1.3394 1.2154 2.0588 2.8774h0.0248v-15.701h3.1998v36.959h-3.1254v-4.9609h-0.0496q-0.79375 1.6867-2.1332 2.927-1.3394 1.2154-3.051 1.8604-1.7115 0.64492-3.6959 0.64492zm0.42168-2.927q2.6293 0 4.5889-1.3146 1.9596-1.3146 3.0262-3.6959 1.0666-2.406 1.0666-5.6307 0-3.2494-1.0666-5.6307-1.0666-2.4061-3.0262-3.7207-1.9596-1.3146-4.5889-1.3146-2.4805 0-4.44 1.2402-1.9348 1.2402-3.051 3.6215t-1.1162 5.8043q0 3.3982 1.1162 5.7795t3.051 3.6215q1.9596 1.2402 4.44 1.2402zm24.185 2.8525q-2.4805 0-4.5393-0.84336-2.0588-0.86816-3.2742-2.5797-1.2154-1.7363-1.2154-4.2912 0-2.0588 0.76895-3.3982 0.79375-1.3394 2.2076-2.158 1.4139-0.84336 3.3486-1.3146 1.9348-0.47129 4.2416-0.76894 2.4557-0.34727 3.9936-0.57051 1.5379-0.24805 2.2572-0.71934 0.74414-0.49609 0.74414-1.5131v-0.39688q0-1.6371-0.81856-2.9021-0.81855-1.265-2.3316-1.9844-1.4883-0.74414-3.4975-0.74414t-3.5967 0.71934q-1.5627 0.69453-2.5053 1.9348-0.91777 1.2402-0.99219 2.7781h-3.2246q0.0744-2.3812 1.4139-4.2416 1.3394-1.8852 3.6215-2.9766 2.3068-1.0914 5.2834-1.0914 2.1828 0 3.9936 0.62011 1.8107 0.62012 3.1006 1.7611 1.3146 1.141 2.0092 2.7037 0.71934 1.5379 0.71934 3.423v18.157h-3.175v-4.2912h-0.0744q-0.5705 1.2154-1.6619 2.3068-1.0666 1.0666-2.7533 1.7363-1.6867 0.64492-4.0432 0.64492zm0.39687-2.9022q2.6293 0 4.44-0.99219 1.8107-0.99218 2.7533-2.7285 0.94258-1.7611 0.94258-4.0184v-3.6711q-0.34727 0.32246-1.017 0.5705-0.66973 0.22325-1.6123 0.44649-0.94258 0.19844-2.0836 0.37207-1.141 0.17363-2.4309 0.34726-2.1828 0.29766-3.7951 0.89297-1.6123 0.57051-2.5053 1.5627-0.86817 0.96738-0.86817 2.5549 0 1.4883 0.79375 2.5301t2.1828 1.5875q1.3891 0.5457 3.1998 0.5457z" style="fill:url(#linearGradient3);stroke-width:.26458"/>
  <text x="104.76859" y="129.98409" style="fill:#000000;font-family:Inter;font-size:50.8px;font-weight:300;letter-spacing:-1.5875px;stroke-width:.26458" xml:space="preserve"><tspan x="104.76859" y="129.98409" style="stroke-width:.26458"/></text>
 </g>
</svg>
